<?xml version="1.0" encoding="utf-8"?>
<!-- Generator: Adobe Illustrator 16.0.0, SVG Export Plug-In . SVG Version: 6.00 Build 0)  -->
<!DOCTYPE svg PUBLIC "-//W3C//DTD SVG 1.1//EN" "http://www.w3.org/Graphics/SVG/1.1/DTD/svg11.dtd">
<svg version="1.1" id="圖層_2" xmlns="http://www.w3.org/2000/svg" xmlns:xlink="http://www.w3.org/1999/xlink" x="0px" y="0px"
	 width="41.463px" height="53.473px" viewBox="0 0 41.463 53.473" enable-background="new 0 0 41.463 53.473" xml:space="preserve">
<g id="圖層_1">
</g>
<g>
	<g>
		<path fill="#FEF2DA" d="M11.525,44.21c0,0.75,0.25,1.667,0.833,2.167l-0.224,3.057c-1.833-1.25-3.693-2.641-3.943-5.057
			L11.525,44.21z"/>
		<g>
			<path d="M11.163,44.307c0.025,0.598,0.12,1.268,0.483,1.768c0.342,0.471,0.344,0.435,0.301,1.024
				c-0.058,0.793-0.116,1.586-0.174,2.379c0.217-0.073,0.434-0.147,0.65-0.221c-1.828-1.254-3.553-2.649-3.869-4.979
				c-0.167,0.102-0.335,0.203-0.503,0.304c1.111-0.056,2.223-0.111,3.333-0.167c0.267-0.014,0.768-0.438,0.281-0.414
				c-1.111,0.056-2.223,0.111-3.333,0.167c-0.154,0.008-0.534,0.076-0.503,0.304c0.327,2.406,2.13,3.842,4.018,5.136
				c0.145,0.1,0.635-0.011,0.65-0.221c0.058-0.793,0.116-1.586,0.174-2.38c0.015-0.205,0.104-0.525,0.049-0.729
				c-0.083-0.309-0.497-0.649-0.636-0.99c-0.151-0.37-0.182-0.784-0.198-1.177C11.878,43.878,11.151,44.025,11.163,44.307z"/>
		</g>
	</g>
	<g>
		<path fill="#FEF2DA" d="M30.167,44.434c0,0.75-0.25,1.667-0.833,2.167l0.226,2.833c1.833-1.25,3.691-2.417,3.941-4.833
			L30.167,44.434z"/>
		<g>
			<path d="M29.805,44.479c-0.033,0.894-0.315,1.389-0.809,2.114c-0.092,0.135,0.005,0.48,0.017,0.623
				c0.062,0.772,0.123,1.543,0.185,2.315c0.018,0.218,0.501,0.071,0.587,0.013c1.874-1.274,3.753-2.576,4.078-4.987
				c0.017-0.127-0.124-0.157-0.222-0.162c-1.111-0.055-2.223-0.111-3.333-0.167c-0.277-0.014-0.771,0.389-0.281,0.414
				c1.111,0.055,2.223,0.111,3.333,0.167c-0.074-0.054-0.148-0.108-0.222-0.162c-0.307,2.277-2.033,3.476-3.804,4.679
				c0.196,0.005,0.392,0.009,0.587,0.013c-0.062-0.772-0.123-1.544-0.185-2.316c-0.039-0.488-0.01-0.427,0.275-0.8
				c0.386-0.506,0.495-1.217,0.518-1.832C30.541,44.087,29.814,44.237,29.805,44.479z"/>
		</g>
	</g>
	<polygon fill="#FEF2DA" stroke="#000000" stroke-width="0.25" stroke-miterlimit="10" points="17.171,33.057 17.89,34.864 
		23.733,34.864 24.265,33.057 	"/>
	
		<path fill="#81B0A9" stroke="#000000" stroke-width="0.7608" stroke-linecap="round" stroke-linejoin="round" stroke-miterlimit="10" d="
		M25.358,33.057c0,0,8.645,3.149,8.963,5.621c0.316,2.472,0.569,4.882,0.632,5.263c0.064,0.379-1.394,0.57-2.915,0.475
		s-2.854,0.475-3.234-2.188l1.078,10.272H11.813l1.078-10.272c-0.38,2.662-1.712,2.092-3.234,2.188s-2.979-0.096-2.917-0.475
		c0.064-0.381,0.317-2.791,0.634-5.263s8.327-5.783,8.327-5.783s3.654,2.281,4.961,2.281C21.923,35.177,25.358,33.057,25.358,33.057
		z"/>
	<g>
		<path fill="#9B7B3F" d="M13.807,31.771c0,0.875-1.313,7.729-3.125,8.167c0.438-1.375,0.594-3.219,0.094-4.531
			C10.588,35.969,9.713,36.563,9.338,37c-0.375,0.625-1.912,1.285-2.599,0.973c0.375-1,1.005-3.285,0.693-4.285
			c-0.625,1.75-2.125,2.438-3.688,3.375c0.125-0.875,0.563-1.563,0.563-2.5c0-1.5-0.438-2.813-0.813-4.188
			c-1-3.375-1.931-10.208-1.931-10.208C1.564,9.581,10.101,1,20.632,1S39.7,9.581,39.7,20.167c0,0-1.189,6.833-2.189,10.208
			c-0.375,1.375-0.813,2.688-0.813,4.188c0,0.938,0.438,1.625,0.563,2.5c-1.563-0.938-3.063-1.625-3.688-3.375
			c-0.313,1,0.508,3.535,0.883,4.535c-0.688,0.313-2.586-0.41-2.961-1.035c-0.375-0.438-0.609-1.063-0.797-1.625
			c-0.5,1.313-0.328,3.188-0.328,4.563c-1.828-0.906-3.417-7.542-3.417-8.417L13.807,31.771z"/>
		<g>
			<path d="M13.182,31.771c-0.18,2.128-0.826,6.514-2.815,7.627c0.306,0.235,0.612,0.47,0.918,0.706
				c0.39-1.768,0.455-3.087,0.094-4.863c-0.121-0.593-0.848-0.532-1.142-0.149c-0.472,0.613-3.017,3.854-2.29,0.905
				c0.234-0.948,0.185-1.386,0.111-2.309c-0.047-0.584-0.846-0.898-1.165-0.315c-0.875,1.4-2.029,2.45-3.463,3.151
				c0.306,0.235,0.612,0.47,0.918,0.706c1.442-5.391-1.382-11.618-2.158-17.066C0.732,9.938,11.644,1.943,20.632,1.625
				c8.818-0.312,20.146,8.821,18.437,18.537c-0.956,5.431-3.864,11.634-2.411,17.066c0.306-0.235,0.612-0.47,0.918-0.706
				c-1.435-0.701-2.589-1.751-3.463-3.151c-0.312-0.57-1.137-0.281-1.165,0.315c-0.078,0.388-0.086,0.774-0.024,1.156
				c0.077,0.426,0.154,0.852,0.23,1.277c0.836,2.106,0.219,1.865-1.854-0.725c-0.201-0.527-1.066-0.661-1.205,0
				c-0.342,1.625-0.379,3.055-0.351,4.729c0.355-0.147,0.711-0.294,1.067-0.442c-2.014-1.559-2.975-5.465-3.233-7.975
				c-0.035-0.337-0.258-0.627-0.625-0.625c-4.382,0.021-8.764,0.042-13.146,0.063c-0.806,0.004-0.806,1.254,0,1.25
				c3.926-0.019,7.853-0.037,11.779-0.056c1.362-0.006,0.825,0.176,0.781-0.258c0.086,0.837,0.339,1.669,0.549,2.48
				c0.528,2.038,1.272,4.658,3.012,6.005c0.402,0.311,1.077,0.159,1.067-0.442c-0.091-1.475,0.011-2.94,0.306-4.396
				c-0.402,0-0.803,0-1.205,0c0.766,2.006,2.067,3.309,4.36,3.119c0.379-0.031,0.744-0.379,0.603-0.791
				c-0.5-1.458-0.935-2.779-0.86-4.369c-0.388,0.105-0.776,0.21-1.165,0.315c0.978,1.788,2.157,2.564,3.912,3.599
				c0.477,0.281,1.059-0.179,0.918-0.706c-1.22-4.561,1.339-10.628,2.202-15.248c0.601-3.215-0.188-6.409-1.389-9.407
				C35.733,4.902,28.279,0.645,20.632,0.375C13.096,0.109,5.381,5.274,2.588,12.242c-1.213,3.028-1.915,6.159-1.437,9.407
				c0.685,4.653,3.205,10.71,1.991,15.248c-0.141,0.527,0.441,0.987,0.918,0.706c1.755-1.035,2.934-1.812,3.912-3.599
				c-0.388-0.105-0.776-0.21-1.165-0.315c0.122,1.515-0.215,2.724-0.67,4.119c-0.13,0.397,0.213,0.78,0.603,0.791
				c2.15,0.062,3.328-1.252,4.576-2.876c-0.381-0.05-0.761-0.1-1.142-0.149c-0.031,1.4-0.063,2.799-0.094,4.199
				c-0.118,0.532,0.423,0.982,0.918,0.706c2.548-1.424,3.214-6.096,3.435-8.706C14.5,30.967,13.25,30.974,13.182,31.771z"/>
		</g>
	</g>
	<path fill="#FEF2DA" d="M4.468,16.417c0,0-0.289,17.099,15.799,16.544c16.089,0.555,15.8-16.544,15.8-16.544H4.468z"/>
	<path fill="none" stroke="#000000" stroke-width="0.9386" stroke-miterlimit="10" d="M4.468,16.417c0,0-0.289,17.099,15.799,16.544
		c16.089,0.555,15.8-16.544,15.8-16.544"/>
	<path fill="#FEF2DA" stroke="#000000" stroke-width="0.9386" stroke-miterlimit="10" d="M4.802,19.879c0,0-2.094,0.135-1.625,1.367
		S4.565,23.3,5.69,23.3L4.802,19.879z"/>
	<path fill="#FEF2DA" stroke="#000000" stroke-width="0.9386" stroke-miterlimit="10" d="M35.849,19.879c0,0,1.91,0.135,1.441,1.367
		s-1.212,2.191-2.336,2.191L35.849,19.879z"/>
	<g>
		<g>
			<path fill="#352A18" d="M13.359,20.411c-0.521,0-0.992,0.195-1.361,0.505c0.057-0.022,0.118-0.037,0.183-0.037
				c0.27,0,0.489,0.219,0.489,0.489s-0.219,0.489-0.489,0.489s-0.489-0.219-0.489-0.489c0-0.063,0.014-0.124,0.036-0.179
				c-0.304,0.367-0.494,0.833-0.494,1.347c0,1.174,0.951,2.125,2.125,2.125s2.125-0.951,2.125-2.125S14.533,20.411,13.359,20.411z"
				/>
			<circle fill="#1C2413" cx="13.359" cy="22.46" r="1.065"/>
			<circle fill="#FFFFFF" cx="14.609" cy="23.66" r="0.318"/>
		</g>
		<path fill="none" stroke="#000000" stroke-linecap="round" stroke-linejoin="round" stroke-miterlimit="10" d="M11.026,19.394
			c0,0,2.427-1.285,4.135,0.007"/>
		<path fill="none" stroke="#000000" stroke-linecap="round" stroke-linejoin="round" stroke-miterlimit="10" d="M25.426,19.662
			c2.009-1.063,3.833-0.221,4.135,0.007"/>
	</g>
	<g>
		<g>
			<path fill="#352A18" d="M27.421,20.598c-0.521,0-0.992,0.195-1.361,0.505c0.057-0.022,0.118-0.037,0.183-0.037
				c0.27,0,0.489,0.219,0.489,0.489s-0.219,0.489-0.489,0.489s-0.489-0.219-0.489-0.489c0-0.063,0.014-0.124,0.036-0.179
				c-0.304,0.367-0.494,0.833-0.494,1.347c0,1.174,0.951,2.125,2.125,2.125s2.125-0.951,2.125-2.125S28.595,20.598,27.421,20.598z"
				/>
			<circle fill="#1C2413" cx="27.421" cy="22.648" r="1.065"/>
			<circle fill="#FFFFFF" cx="28.671" cy="23.847" r="0.318"/>
		</g>
	</g>
	<path fill="none" stroke="#000000" stroke-linecap="round" stroke-miterlimit="10" d="M22.552,28.734
		c0,0.76-0.911,1.375-2.034,1.375c-1.124,0-2.034-0.615-2.034-1.375"/>
	<path fill="none" stroke="#000000" stroke-miterlimit="10" d="M21.994,27.942"/>
	<path fill="none" stroke="#000000" stroke-miterlimit="10" d="M17.926,25.942"/>
	<path fill="none" stroke="#000000" stroke-miterlimit="10" d="M30.37,27.188"/>
	<ellipse fill="#EE87B4" cx="13.239" cy="27.188" rx="1.37" ry="0.375"/>
	<ellipse fill="#EE87B4" cx="27.918" cy="27.25" rx="1.37" ry="0.375"/>
	<g>
		<path fill="#9B7B3F" d="M35.682,13.75c-0.761,1.75,1.593,2.604,1.676,3.688c-0.917-0.167-1.801-0.191-2.551-0.691
			c-0.833-0.417-1.458-1.413-2.375-1.663c0.25,0.417,1.042,3.375,1.042,3.375s-2.583,0.647-6.5-3.879
			c0.083,0.833-0.083,2.087,0.945,3.129c-1.083,0-3.611-2.042-4.528-2.375c0.333,0.667-0.542,1.583,0.292,2.875
			c-1.938-0.309-3.698-2.25-5.198-3c0.083,1-0.558,2.375,0,3.538c-2.083-0.25-4.358-3.558-4.358-3.558
			c0.256,1.231-1.054,2.228-2.488,2.929c-0.896,0.438-4.875,0.635-4.875,0.635s1.273-1.899,1.606-2.316
			c-0.5,0.083-4.167,0.813-4.5,0.313c-0.25-0.5,3.354-2.833,3.604-3.5"/>
		<g>
			<path d="M34.951,13.817c-0.257,1.948,0.935,2.123,1.682,3.814c0.329-0.228,0.657-0.455,0.986-0.682
				c-2.381-0.393-2.885-1.33-4.623-2.262c-0.325-0.174-1.524,0-1.289,0.59c0.398,0.995,0.671,2.032,0.958,3.064
				c1.113-0.337,1.051-0.493-0.186-0.467c-1.889-0.398-3.659-2.355-4.839-3.602c-0.394-0.416-1.426-0.113-1.391,0.501
				c0.082,1.437,0.254,2.048,1.003,3.242c0.364-0.254,0.729-0.509,1.093-0.764c-1.631-0.439-2.921-1.548-4.39-2.314
				c-0.445-0.232-1.319-0.011-1.289,0.59c0.131,2.56-0.392,0.722,0.292,2.875c0.384-0.217,0.768-0.434,1.151-0.651
				c-1.96-0.616-3.355-1.894-5.061-2.939c-0.355-0.218-1.255-0.048-1.295,0.463c-0.107,1.36-0.245,2.335,0.006,3.665
				c0.384-0.217,0.768-0.434,1.151-0.651c-1.814-0.558-3.05-1.92-4.119-3.408c-0.313-0.435-1.307-0.113-1.397,0.375
				c-0.534,2.893-3.731,2.808-5.746,2.961c-0.786-0.04-0.784,0.058,0.005,0.293c0.457-0.679,0.921-1.351,1.402-2.013
				c0.271-0.371-0.346-0.594-0.61-0.547c-0.422,0.076-3.411,0.179-3.417,0.186c0.939-0.993,2.202-1.614,3.043-2.704
				c0.553-0.717-0.828-0.84-1.195-0.364c-1.01,1.308-3.18,2.115-3.738,3.75c-0.067,0.196,0.162,0.335,0.304,0.389
				c0.835,0.315,1.665,0.179,2.539,0.093c2.486-0.246,1.401-0.546,0.095,1.394c-0.269,0.398,0.348,0.562,0.61,0.547
				c3.139-0.172,7.465-0.304,8.169-4.119c-0.466,0.125-0.932,0.25-1.397,0.375c1.198,1.668,2.607,3.095,4.598,3.707
				c0.385,0.118,1.254-0.107,1.151-0.651c-0.127-1.14-0.125-2.277,0.006-3.411c-0.432,0.154-0.864,0.309-1.295,0.463
				c1.802,1.104,3.298,2.42,5.336,3.061c0.338,0.106,1.321-0.115,1.151-0.651c-0.211-0.666-0.249-2.024-0.292-2.875
				c-0.43,0.197-0.859,0.393-1.289,0.59c1.573,0.82,2.934,1.97,4.666,2.436c0.386,0.104,1.455-0.187,1.093-0.764
				c-0.632-0.93-0.928-1.936-0.887-3.016c-0.464,0.167-0.927,0.334-1.391,0.501c1.716,1.812,4.259,4.54,7.091,4.059
				c0.295-0.05,0.916-0.255,0.801-0.681c-0.308-1.136-0.604-2.281-1.042-3.375c-0.43,0.197-0.859,0.393-1.289,0.59
				c1.95,1.046,2.957,2.071,5.229,2.446c0.281,0.046,1.183-0.235,0.986-0.682c-0.514-1.162-1.858-2.135-1.669-3.561
				C36.504,12.994,35.031,13.219,34.951,13.817L34.951,13.817z"/>
		</g>
	</g>
</g>
</svg>
